<?xml version="1.0" encoding="UTF-8"?>
<svg version="1.1" xmlns="http://www.w3.org/2000/svg" width="3314" height="3314">
<path d="M0 0 C0.66 0 1.32 0 2 0 C2.57778198 1.3137561 2.57778198 1.3137561 3.16723633 2.65405273 C11.10504941 20.68457765 19.17662659 38.64392483 27.5 56.5 C33.79582548 70.00730084 39.95813812 83.56246649 45.96923828 97.19873047 C51.3373708 109.36667725 56.88158685 121.44574526 62.5 133.5 C68.7956966 147.00736029 74.95813731 160.56246463 80.96923828 174.19873047 C86.3373708 186.36667725 91.88158685 198.44574526 97.5 210.5 C103.7956966 224.00736029 109.95813731 237.56246463 115.96923828 251.19873047 C121.3373708 263.36667725 126.88158685 275.44574526 132.5 287.5 C138.7956966 301.00736029 144.95813731 314.56246463 150.96923828 328.19873047 C156.3373708 340.36667725 161.88158685 352.44574526 167.5 364.5 C173.7956966 378.00736029 179.95813731 391.56246463 185.96923828 405.19873047 C191.3373708 417.36667725 196.88158685 429.44574526 202.5 441.5 C208.7956966 455.00736029 214.95813731 468.56246463 220.96923828 482.19873047 C226.3373708 494.36667725 231.88158685 506.44574526 237.5 518.5 C243.7956966 532.00736029 249.95813731 545.56246463 255.96923828 559.19873047 C261.3373708 571.36667725 266.88158685 583.44574526 272.5 595.5 C278.7956966 609.00736029 284.95813731 622.56246463 290.96923828 636.19873047 C296.3373708 648.36667725 301.88158685 660.44574526 307.5 672.5 C313.7956966 686.00736029 319.95813731 699.56246463 325.96923828 713.19873047 C331.3373708 725.36667725 336.88158685 737.44574526 342.5 749.5 C348.7956966 763.00736029 354.95813731 776.56246463 360.96923828 790.19873047 C366.33737102 802.36667775 371.8815955 814.44574043 377.5 826.5 C384.28702757 841.06161048 390.91422228 855.68349608 397.3984375 870.38232422 C401.99119688 880.78538707 406.70410728 891.12531991 411.54858398 901.41381836 C412.00692627 902.39358643 412.46526855 903.37335449 412.9375 904.3828125 C413.33839844 905.23246582 413.73929688 906.08211914 414.15234375 906.95751953 C415 909 415 909 415 911 C135.49 911 -144.02 911 -432 911 C-426.59547265 898.98993922 -421.18365607 887.0844235 -415.37246704 875.28106689 C-409.00668919 862.3445934 -402.78813917 849.35465036 -396.76269531 836.25585938 C-392.7790702 827.61841988 -388.66280867 819.05192736 -384.5 810.5 C-379.73499803 800.71035433 -375.05715753 790.88880736 -370.5 781 C-365.63728272 770.44814304 -360.62635787 759.97775157 -355.54199219 749.53173828 C-351.09854261 740.39747651 -346.75156583 731.22568842 -342.5 722 C-337.63728272 711.44814304 -332.62635787 700.97775157 -327.54199219 690.53173828 C-323.09854261 681.39747651 -318.75156583 672.22568842 -314.5 663 C-309.63728272 652.44814304 -304.62635787 641.97775157 -299.54199219 631.53173828 C-295.09854261 622.39747651 -290.75156583 613.22568842 -286.5 604 C-281.63728272 593.44814304 -276.62635787 582.97775157 -271.54199219 572.53173828 C-267.09854261 563.39747651 -262.75156583 554.22568842 -258.5 545 C-253.94284064 535.11118868 -249.2648858 525.28970482 -244.5 515.5 C-239.1590035 504.5264229 -233.95352395 493.50166959 -228.84375 482.41796875 C-224.70090612 473.45362442 -220.427611 464.55722096 -216.11346436 455.67468262 C-211.83787647 446.8665059 -207.66180854 438.01688249 -203.5625 429.125 C-198.6780217 418.53201162 -193.64702341 408.02027452 -188.54226685 397.5322876 C-184.09872442 388.39784286 -179.75165174 379.22587484 -175.5 370 C-170.63728272 359.44814304 -165.62635787 348.97775157 -160.54199219 338.53173828 C-156.09854261 329.39747651 -151.75156583 320.22568842 -147.5 311 C-142.63728272 300.44814304 -137.62635787 289.97775157 -132.54199219 279.53173828 C-128.09854261 270.39747651 -123.75156583 261.22568842 -119.5 252 C-114.63728272 241.44814304 -109.62635787 230.97775157 -104.54199219 220.53173828 C-100.09854261 211.39747651 -95.75156583 202.22568842 -91.5 193 C-86.63728272 182.44814304 -81.62635787 171.97775157 -76.54199219 161.53173828 C-72.09854261 152.39747651 -67.75156583 143.22568842 -63.5 134 C-58.63728272 123.44814304 -53.62635787 112.97775157 -48.54199219 102.53173828 C-44.09854261 93.39747651 -39.75156583 84.22568842 -35.5 75 C-30.64181409 64.45797591 -25.63622715 53.99698471 -20.55609131 43.5609436 C-14.22692808 30.55204788 -8.11337299 17.44869725 -2.06884766 4.30541992 C-1.39912818 2.86088794 -0.71206697 1.42413393 0 0 Z " fill="#000001" transform="translate(1759,1260)"/>
<path d="M0 0 C105.6 0 211.2 0 320 0 C320 300.63 320 601.26 320 911 C214.4 911 108.8 911 0 911 C0 610.37 0 309.74 0 0 Z " fill="#000001" transform="translate(2295,1260)"/>
<path d="M0 0 C0.6398584 0.57814453 1.2797168 1.15628906 1.93896484 1.75195312 C9.0226197 8.18694685 15.89148599 14.61887891 22 22 C22.88276541 23.00104218 23.76846854 23.99949741 24.65625 24.99609375 C75.12856077 82.02001896 97.15751666 157.64270873 92.77294922 232.89697266 C87.95474964 295.94145704 61.76268523 355.30828395 19.046875 401.765625 C16.96615109 404.03694957 14.95361043 406.35881431 12.9375 408.6875 C9.88277995 412.12706668 6.68195558 415.17718543 3.16796875 418.140625 C0.70694592 420.25134007 -1.6361849 422.46855249 -4 424.6875 C-49.55733087 466.15473901 -115.00059015 492.90899561 -176.6328125 493.203125 C-177.61940353 493.21018463 -178.60599457 493.21724426 -179.6224823 493.22451782 C-220.39039511 493.45008362 -220.39039511 493.45008362 -238 490 C-239.0204541 489.81195801 -240.0409082 489.62391602 -241.09228516 489.43017578 C-266.67973514 484.62894804 -291.66374039 476.57346949 -315 465 C-315.77279297 464.62439941 -316.54558594 464.24879883 -317.34179688 463.86181641 C-335.49583127 454.98375782 -352.3153923 443.71894286 -368 431 C-368.95777344 430.24589844 -369.91554688 429.49179688 -370.90234375 428.71484375 C-378.44728273 422.58761531 -385.36233238 415.84807422 -392.25 409 C-393.17288818 408.08637695 -394.09577637 407.17275391 -395.04663086 406.23144531 C-412.17885179 389.02077029 -426.04713788 369.06387948 -438 348 C-438.38381836 347.3301709 -438.76763672 346.6603418 -439.16308594 345.97021484 C-474.58193291 283.73881991 -482.11296043 205.72579712 -464 137 C-454.42302263 102.79962352 -439.6217925 70.31445405 -418 42 C-417.56478027 41.4234668 -417.12956055 40.84693359 -416.68115234 40.25292969 C-402.22023989 21.155575 -385.21725676 2.39390301 -366 -12 C-364.62883926 -13.06111136 -363.25775225 -14.12231799 -361.88671875 -15.18359375 C-337.08360113 -34.15006284 -308.78101753 -49.46327593 -279 -59 C-278.20029785 -59.2582959 -277.4005957 -59.5165918 -276.57666016 -59.78271484 C-256.67059806 -66.09857444 -235.83298685 -70.35162296 -215 -72 C-214.24605957 -72.06171387 -213.49211914 -72.12342773 -212.71533203 -72.18701172 C-135.00187174 -78.15036904 -57.81565738 -52.27478828 0 0 Z " fill="#000001" transform="translate(1166,1678)"/>
<path d="M0 0 C189.42 0 378.84 0 574 0 C575.15900847 49.83736428 575.15900847 49.83736428 575.35133171 74.27872467 C575.39050191 79.15850603 575.43416677 84.0382429 575.47802734 88.91798401 C575.5411407 95.99284441 575.6020544 103.06772071 575.66131783 110.14261436 C575.74699817 120.37076239 575.83623889 130.59887713 575.92625164 140.82698784 C576.07232437 157.43566336 576.21565641 174.04436129 576.35717773 190.65307617 C576.49436997 206.75302411 576.6329072 222.85295957 576.77319336 238.95288086 C576.78189162 239.95118825 576.79058989 240.94949565 576.79955173 241.97805478 C576.84321183 246.98803378 576.88689775 251.99801254 576.93059647 257.00799119 C577.29106305 298.33862663 577.64704523 339.66929977 578 381 C574.42243239 379.61176671 571.36588476 378.08302108 568.16015625 375.96484375 C567.20036865 375.33400879 566.24058105 374.70317383 565.25170898 374.05322266 C563.67305054 373.00593994 563.67305054 373.00593994 562.0625 371.9375 C560.92093608 371.18495649 559.77908083 370.43285476 558.63696289 369.68115234 C556.12004852 368.02363315 553.60487851 366.36350811 551.09082031 364.70166016 C546.82289957 361.88142947 542.54860325 359.07095061 538.2734375 356.26171875 C519.94685106 344.21731492 501.63474141 332.15088705 483.32006836 320.08837891 C471.88235571 312.55540508 460.44206671 305.0263584 449 297.5 C434.96586029 288.26862879 420.93537871 279.03171808 406.90673828 269.79199219 C394.60688809 261.6910164 382.30462025 253.59372855 370 245.5 C355.96586029 236.26862879 341.93537871 227.03171808 327.90673828 217.79199219 C315.60688809 209.6910164 303.30462025 201.59372855 291 193.5 C277.83061998 184.83745009 264.66423513 176.1703664 251.5 167.5 C238.27299374 158.78838079 225.04424702 150.07941716 211.8125 141.375 C211.03307037 140.86225525 210.25364075 140.3495105 209.45059204 139.82122803 C203.96715068 136.21401623 198.48358984 132.60698608 193 129 C186.72908297 124.87512723 180.45822161 120.75016985 174.1875 116.625 C173.40831207 116.11241638 172.62912415 115.59983276 171.82632446 115.07171631 C158.51729047 106.31621107 145.21189863 97.55518286 131.90756226 88.7925415 C118.82733877 80.17758946 105.74414968 71.56715957 92.65878296 62.96002197 C83.6837281 57.05643553 74.70978446 51.15117019 65.73828125 45.2421875 C64.87801834 44.67565964 64.01775543 44.10913177 63.13142395 43.5254364 C58.81858373 40.68504458 54.50642148 37.84363321 50.19555664 35.00024414 C42.54154475 29.9535122 34.88229353 24.91569036 27.19520569 19.91943359 C23.89036785 17.77132541 20.58852522 15.61863572 17.28671265 13.46588135 C15.72964078 12.45286126 14.17091982 11.4423711 12.61050415 10.43450928 C10.4745877 9.05487207 8.34420582 7.66706749 6.21484375 6.27734375 C5.57954742 5.87036758 4.9442511 5.46339142 4.28970337 5.04408264 C2.82402977 4.08178203 1.40577277 3.04786664 0 2 C0 1.34 0 0.68 0 0 Z " fill="#000001" transform="translate(685,1256)"/>
</svg>
